<svg width="87" height="98" viewBox="0 0 87 98" fill="none" xmlns="http://www.w3.org/2000/svg">
<path d="M0.960223 97.2037C0.218266 96.7428 -0.0121714 96.0844 0.000489944 95.2133C0.0435386 92.2734 0.0106195 89.3309 0.0182163 86.3884C0.0283454 82.005 2.34538 78.789 6.49324 77.3937C9.11921 76.51 11.7477 75.6262 14.3737 74.7424C14.3534 74.4107 14.047 74.3828 13.852 74.2537C8.79762 70.8782 6.20457 66.1403 6.11087 60.078C6.04503 55.8719 6.09315 51.6658 6.09821 47.4597C6.10834 39.0146 12.0617 32.4712 20.4917 32.0153C25.346 31.752 30.2333 31.7191 35.0928 32.0837C41.9603 32.6028 48.0251 38.7183 48.4049 45.5807C48.7037 51.0099 48.7367 56.4645 48.3923 61.8911C48.0631 67.1304 45.4219 71.1821 41.0816 74.122C40.8233 74.2968 40.56 74.4613 40.1776 74.707C42.7757 75.5781 45.2598 76.4112 47.744 77.2393C52.3705 78.7839 54.6191 81.8809 54.6217 86.7252C54.6242 89.5081 54.5989 92.2911 54.6343 95.0741C54.6445 95.9477 54.4647 96.6719 53.7328 97.1961C53.353 97.1961 52.9732 97.1961 52.5933 97.1961C51.8083 96.8745 51.5703 96.2566 51.5728 95.4514C51.5855 92.5747 51.5981 89.698 51.5703 86.8214C51.55 84.7576 51.0284 82.8888 49.3444 81.4985C48.4151 80.7313 47.3161 80.354 46.2044 79.9893C43.5632 79.1258 44.29 79.0726 42.9428 81.1491C39.7446 86.0794 35.2624 89.0523 29.3876 89.6727C21.9857 90.4527 16.2273 87.538 11.93 81.5593C11.5603 81.0453 11.2995 80.4654 11.0032 79.9057C10.826 79.574 10.5879 79.3081 10.1777 79.4499C8.80521 79.9159 7.36435 80.2147 6.08808 80.9389C4.04707 82.0936 3.16583 83.9523 3.12532 86.2136C3.07214 89.2473 3.11519 92.2835 3.11013 95.3172C3.11013 96.206 2.89488 96.9479 1.90476 97.2012C1.59076 97.2037 1.27422 97.2037 0.960223 97.2037Z" fill="#20B46D"/>
<path d="M59.048 0C60.3192 0.433019 61.6689 0.460874 62.9731 0.749553C75.6623 3.56544 85.3609 14.6796 86.4245 27.6651C87.6982 43.2335 77.3741 57.0066 62.0842 60.1086C59.1848 60.6961 56.2499 60.7974 53.3048 60.5416C52.2919 60.453 51.7222 59.8503 51.7905 58.9716C51.8564 58.1334 52.4515 57.627 53.4593 57.7106C56.7335 57.9765 59.9596 57.7587 63.1528 56.961C63.7226 56.8192 63.9885 56.6293 63.9682 55.9734C63.9151 54.2667 63.9151 52.5574 63.9682 50.8506C63.9885 50.1492 63.7277 50.02 63.0997 50.0276C60.0635 50.0555 57.0273 50.0403 53.9885 50.0378C53.672 50.0378 53.3529 50.0403 53.044 49.9947C52.2008 49.8656 51.7247 49.2983 51.7956 48.4956C51.869 47.6726 52.3603 47.2269 53.163 47.2067C54.6165 47.1738 56.0726 47.1915 57.5287 47.1915C58.9214 47.1915 60.3116 47.1788 61.7044 47.1991C62.1855 47.2067 62.4919 47.1459 62.4362 46.5458C62.1171 43.1576 63.1123 40.0733 64.9026 37.2878C67.2526 33.6311 67.1184 29.6048 66.9614 25.5557C66.8981 23.93 65.6193 22.6943 63.9961 22.6461C61.5626 22.5727 59.124 22.6284 56.6905 22.6107C56.2853 22.6082 56.1106 22.7322 56.141 23.1475C56.1638 23.4615 56.1359 23.7806 56.1486 24.0971C56.1942 25.2696 56.7462 25.8343 57.9136 25.852C59.243 25.8723 60.5699 25.8495 61.8994 25.8596C63.244 25.8697 63.7429 26.361 63.7555 27.6904C63.7682 28.987 63.7733 30.286 63.753 31.5825C63.7378 32.6815 63.1731 33.2944 62.2615 33.2614C61.3828 33.2311 60.927 32.6613 60.9143 31.5623C60.9042 30.8355 60.8789 30.1062 60.9219 29.3795C60.9548 28.8198 60.7396 28.673 60.2129 28.6983C59.4228 28.7363 58.6327 28.6957 57.8401 28.7109C56.8576 28.7287 55.9485 28.4856 55.1812 27.8829C54.8039 27.5866 54.5887 27.6499 54.224 27.893C52.5224 29.0275 50.7953 29.0047 49.081 27.893C48.4986 27.5157 47.0374 28.2678 47.0147 28.9819C46.9868 29.8657 47.0273 30.7545 47.002 31.6383C46.9716 32.7018 46.4474 33.2741 45.5611 33.264C44.6774 33.2538 44.1988 32.6841 44.1633 31.5977C44.1532 31.2812 44.1355 30.9621 44.1658 30.6481C44.2849 29.3896 44.1709 28.3817 42.806 27.6575C41.5829 27.0067 41.1398 25.6418 41.122 24.2364C41.1018 22.75 41.079 21.261 41.1246 19.7771C41.2259 16.3939 44.1785 14.4011 47.3363 15.6089C47.8199 15.7938 47.9719 15.652 48.2479 15.3304C49.6052 13.7579 51.4284 13.302 53.3833 14.0668C53.8062 14.2314 53.9961 14.2187 54.3127 13.849C56.2245 11.6231 59.2354 11.6054 61.165 13.7933C61.479 14.1478 61.6791 14.2516 62.1678 14.0643C65.1837 12.8969 68.1845 14.8974 68.3263 18.1362C68.3465 18.5793 68.3516 19.0225 68.3288 19.4656C68.263 20.7647 68.2655 22.0207 69.1797 23.1146C69.5342 23.54 69.6836 24.1376 69.719 24.7125C69.909 27.7107 70.0963 30.7165 69.4886 33.6869C69.0606 35.7861 67.9616 37.6296 66.9386 39.4655C65.6294 41.8155 65.0951 44.2743 65.2825 46.9307C65.3078 47.2801 65.2977 47.5789 65.6446 47.8296C66.5056 48.4526 66.812 49.3642 66.812 50.3974C66.812 52.1269 66.812 53.859 66.812 55.6974C69.1518 54.7529 71.2359 53.5754 73.0819 52.0408C82.0537 44.5782 85.6597 35.0315 82.8286 23.7148C80.0127 12.4613 72.4387 5.51023 61.0308 3.31981C46.0093 0.435551 31.4741 10.8888 29.0963 25.9356C29.0228 26.404 28.9773 26.8776 28.9013 27.3435C28.7443 28.3007 28.1467 28.797 27.2933 28.6907C26.4804 28.5894 25.974 27.8804 26.0829 26.9611C26.6476 22.2486 28.1289 17.85 30.7676 13.8946C36.0727 5.94072 43.4847 1.3573 52.9883 0.189921C53.1377 0.172195 53.3124 0.21271 53.3656 0.0050637C54.4418 0.0050637 55.518 0.0050637 56.5917 0.0050637C56.9716 0.159533 57.3514 0.159533 57.7312 0.0050637C58.1617 -8.49955e-07 58.6049 0 59.048 0Z" fill="#20B46D"/>
<path d="M1.90732 97.2038C2.66953 96.7582 2.89237 96.0947 2.87971 95.2211C2.83666 92.2482 2.85692 89.2753 2.86452 86.3024C2.87211 83.2586 4.44466 81.0884 7.34411 80.1034C8.26839 79.7894 9.20787 79.5134 10.1195 79.1588C10.6411 78.9563 10.8488 79.0854 11.102 79.5767C13.3152 83.9018 16.7085 86.9101 21.2919 88.5434C29.8155 91.5822 39.3597 87.7939 43.4417 79.7235C43.7785 79.0575 44.0722 78.9563 44.7154 79.2145C45.5916 79.5665 46.5058 79.8223 47.3996 80.1312C50.1446 81.0783 51.7374 83.2738 51.7653 86.234C51.7931 89.1765 51.7982 92.1165 51.7552 95.059C51.7425 95.925 51.9198 96.6417 52.5933 97.2038C35.698 97.2038 18.8027 97.2038 1.90732 97.2038Z" fill="#FEFEFE"/>
<path d="M45.6779 57.1664C45.6373 59.3239 45.8627 61.7422 45.1714 64.0922C43.9508 68.2248 41.3325 71.1167 37.4074 72.8741C36.663 73.2058 36.3515 73.0336 36.3439 72.2613C36.3287 70.5849 36.3515 68.9086 36.3236 67.2322C36.316 66.7511 36.663 66.5941 36.9415 66.3586C39.9499 63.8288 41.7174 60.6103 42.2998 56.7334C42.4821 55.5153 41.7858 54.6797 40.7247 54.8342C39.8562 54.9608 39.5903 55.5787 39.4611 56.3713C38.7318 60.8103 36.3743 64.0643 32.2467 65.9027C24.3333 69.4302 15.3235 63.7478 15.0399 55.0849C15.0069 54.0416 15.0399 52.9957 15.0221 51.9524C15.0145 51.5625 15.0702 51.3346 15.5488 51.2485C19.8664 50.4761 23.4166 48.2452 26.5313 45.2748C27.2176 44.619 27.5214 44.7355 28.1393 45.3179C31.3908 48.3921 35.0929 50.6559 39.6029 51.3498C41.3325 51.6156 43.0747 51.6384 44.7966 51.3118C45.5335 51.17 45.7184 51.3523 45.6956 52.0892C45.6399 53.6997 45.6779 55.3153 45.6779 57.1664Z" fill="#FEFEFE"/>
<path d="M27.7972 34.7911C29.8382 34.8721 32.3375 34.6569 34.8293 34.9076C41.1169 35.5406 46.0523 41.3725 45.6928 47.7057C45.6598 48.2932 45.3585 48.3438 44.9255 48.4223C40.689 49.1921 36.8576 48.1691 33.315 45.8318C31.5905 44.6948 30.0661 43.3274 28.6379 41.8435C27.6731 40.8407 26.959 40.8407 25.9967 41.8359C23.4467 44.4745 20.6334 46.7156 17.0932 47.9108C14.642 48.7389 12.1528 48.8452 9.61543 48.4198C9.05073 48.3261 8.93425 48.083 8.92665 47.5462C8.83296 40.4052 14.2115 34.8721 21.3652 34.7962C23.3606 34.7734 25.3535 34.7911 27.7972 34.7911Z" fill="#FEFEFE"/>
<path d="M21.112 68.4876C25.2776 70.2425 29.3267 70.2248 33.4873 68.5205C33.4873 69.6373 33.4847 70.6679 33.4873 71.696C33.4974 74.3954 34.5533 75.8591 37.0907 76.6972C38.2277 77.072 39.352 77.4899 40.5017 77.819C41.0891 77.9862 41.074 78.2115 40.8182 78.6648C38.3771 83.0051 34.7154 85.7071 29.818 86.5301C23.2493 87.6341 16.7742 84.3574 13.7811 78.5939C13.6975 78.4344 13.6216 78.2698 13.5152 78.0545C15.0118 77.5456 16.4754 77.0619 17.9315 76.5504C20.008 75.8211 21.0867 74.3093 21.107 72.124C21.1222 70.9566 21.112 69.7867 21.112 68.4876Z" fill="#FEFEFE"/>
<path d="M12.1631 53.9406C12.1124 59.0228 13.9382 63.2441 17.8936 66.488C18.1696 66.7134 18.2735 66.9438 18.2709 67.2882C18.2557 68.9342 18.2532 70.5776 18.2684 72.2236C18.276 73.0289 18.0101 73.2162 17.253 72.8541C12.1529 70.4231 9.31933 66.407 8.99267 60.7726C8.82047 57.8099 8.96988 54.8269 8.93189 51.854C8.9243 51.2386 9.16233 51.1652 9.64853 51.2918C9.77008 51.3247 9.89922 51.3298 10.0208 51.3678C10.7171 51.5982 11.725 51.1247 12.1023 51.7932C12.4087 52.3503 12.1631 53.2138 12.1631 53.9406Z" fill="#FEFEFE"/>
<path d="M50.0535 21.2124C50.0535 20.2324 50.0307 19.2499 50.0611 18.2699C50.094 17.2139 50.7625 16.5277 51.6792 16.5403C52.5554 16.5505 53.2543 17.2139 53.2771 18.2091C53.3201 20.202 53.3201 22.1949 53.2796 24.1878C53.2568 25.2438 52.5503 25.8794 51.5982 25.8464C50.6865 25.8161 50.0915 25.1906 50.0585 24.1549C50.0281 23.1724 50.0535 22.1924 50.0535 21.2124Z" fill="#FDFDFD"/>
<path d="M43.9659 21.924C43.9659 21.1644 43.9279 20.4047 43.976 19.6475C44.0368 18.7081 44.6952 18.08 45.5435 18.0623C46.3867 18.0446 47.1287 18.6625 47.1641 19.5893C47.2249 21.1669 47.2249 22.7521 47.1667 24.3297C47.1312 25.2818 46.4399 25.8567 45.5561 25.8465C44.6749 25.8389 44.0368 25.2489 43.976 24.2943C43.9279 23.5067 43.9684 22.7141 43.9659 21.924Z" fill="#FDFDFD"/>
<path d="M56.1639 17.8809C56.1639 17.4099 56.131 16.9364 56.1715 16.4679C56.2424 15.6297 56.7716 15.1486 57.5617 15.0473C58.3644 14.946 59.0127 15.3183 59.2406 16.1083C59.5597 17.2099 59.3394 18.357 59.3723 19.4839C59.3824 19.8156 59.0963 19.7675 58.8861 19.77C58.2252 19.7751 57.5617 19.732 56.9059 19.7852C56.293 19.8333 56.0525 19.6409 56.131 19.0154C56.1791 18.6432 56.1386 18.2608 56.1386 17.886C56.1487 17.8809 56.1563 17.8809 56.1639 17.8809Z" fill="#FDFDFD"/>
<path d="M65.4525 18.9057C65.693 19.8578 65.2904 20.1288 64.3281 19.8072C64.0698 19.7211 63.7482 19.8351 63.4874 19.7566C63.0721 19.6274 62.4112 20.1794 62.2415 19.4071C61.9301 17.984 62.3783 16.9508 63.3659 16.6267C64.0926 16.3886 64.9333 16.7431 65.2701 17.4421C65.4854 17.8801 65.498 18.3537 65.4525 18.9057Z" fill="#FCFCFC"/>
</svg>
