<svg width="102" height="99" viewBox="0 0 102 99" fill="none" xmlns="http://www.w3.org/2000/svg">
<path d="M0.00263505 61.621C0.492744 60.9201 0.387344 60.0742 0.534903 59.2969C1.58627 53.7213 3.92614 48.7569 7.55716 44.4066C7.98666 43.8928 8.15267 43.3341 8.26861 42.7254C8.82722 39.7795 9.70995 36.9311 10.872 34.1723C11.4227 32.86 12.4978 32.3409 13.6097 32.8205C14.6611 33.2737 15.0379 34.3857 14.5241 35.6584C13.6624 37.7927 12.9325 39.964 12.4108 42.209C12.2843 42.7571 12.2474 42.9705 12.9431 43.0812C26.7873 45.3183 37.5724 56.2509 39.6751 70.1584C40.2759 74.1372 40.0071 78.087 39.2904 82.0343C38.6053 85.8102 39.1007 89.4992 40.3813 93.096C40.5683 93.6203 40.8266 94.1341 40.8213 94.7007C40.8134 95.6703 40.1573 96.3739 39.0242 96.611C29.8808 98.5188 21.4172 96.8166 13.7942 91.4807C5.84178 85.9156 1.42817 78.1397 0.200259 68.5352C0.17918 68.3771 0.208164 68.2006 0 68.1373C0 67.6103 0 67.0833 0 66.5563C0.16337 66.0952 0.16337 65.6341 0 65.1729C0 64.4483 0 63.7237 0 62.9991C0.123845 62.8673 0.123845 62.7356 0 62.6038C0.00263499 62.2797 0.00263505 61.9503 0.00263505 61.621Z" fill="#20B46D"/>
<path d="M101.149 67.1511C100.691 68.3422 100.686 69.6228 100.42 70.8559C97.3155 85.2298 84.91 95.6697 70.2094 96.2467C67.9327 96.3363 65.6719 96.2283 63.4295 95.812C62.8366 95.7013 62.2886 95.7566 61.7036 95.9621C58.7524 97.003 55.7116 97.6907 52.605 98.0833C51.435 98.2309 50.4838 97.5431 50.3073 96.4338C50.1307 95.3297 50.8053 94.3864 52.0095 94.1993C54.3177 93.841 56.6049 93.4088 58.8525 92.7606C59.506 92.5735 59.7379 92.4102 59.4559 91.6513C53.3533 75.151 61.3268 57.0565 77.6348 50.4453C80.2856 49.3702 82.9706 48.419 85.271 46.643C86.7914 45.4704 88.1563 44.1529 89.3868 42.6826C90.6121 41.2202 91.7531 41.2096 93.002 42.6273C97.6001 47.8393 100.285 53.8919 100.968 60.8193C100.983 60.9747 100.944 61.1539 101.149 61.225C101.149 61.8179 101.149 62.4108 101.149 63.0037C100.981 63.7942 100.981 64.5847 101.149 65.3751C101.149 65.9654 101.149 66.5583 101.149 67.1511Z" fill="#20B46D"/>
<path d="M101.149 65.3725C100.833 64.582 100.836 63.7915 101.149 63.001C101.149 63.7915 101.149 64.582 101.149 65.3725Z" fill="#111111"/>
<path d="M0.00244141 65.1746C0.305466 65.6357 0.321275 66.0969 0.00244141 66.558C0.00244141 66.0969 0.00244141 65.6357 0.00244141 65.1746Z" fill="#161616"/>
<path d="M0.00244141 62.6091C0.302831 62.7409 0.244861 62.8726 0.00244141 63.0044C0.00244141 62.8726 0.00244141 62.7409 0.00244141 62.6091Z" fill="#626262"/>
<path d="M73.4844 17.8744C73.5872 17.4871 73.2842 17.2658 73.1103 17.0181C66.8838 8.23036 58.3649 4.15667 47.6325 4.67576C45.0555 4.79961 42.5681 5.38457 40.1307 6.2225C38.5076 6.78112 37.1347 5.75084 37.3244 4.17248C37.4246 3.33191 37.9384 2.82072 38.7104 2.54405C43.5957 0.799684 48.6259 0.146207 53.7563 0.91299C66.5834 2.83126 75.2973 9.94838 80.0271 21.9903C80.1905 22.4066 80.4461 22.7096 80.7781 22.9969C83.1311 25.0205 85.255 27.2629 87.1311 29.7372C87.998 30.8808 87.9453 32.0481 87.0019 32.7885C86.0665 33.5237 84.915 33.3023 84.0165 32.1561C82.6121 30.3669 81.0969 28.6832 79.4553 27.1048C78.9863 26.6542 78.7808 26.6648 78.3565 27.176C73.1393 33.4393 66.5149 37.3207 58.4518 38.5539C48.9764 40.0005 40.4127 37.6922 32.9978 31.6238C29.372 28.6568 25.4802 26.5067 20.8241 25.782C19.0982 25.5133 18.4974 24.4303 19.0376 22.7887C20.031 19.7769 21.417 16.9575 23.2457 14.362C24.2048 13.0023 25.2377 12.6703 26.297 13.3791C27.3484 14.0853 27.4221 15.2842 26.4656 16.6571C25.2614 18.3883 24.2654 20.2275 23.4433 22.2512C25.7173 22.823 27.8701 23.5924 29.9043 24.6727C31.8331 25.6951 33.5643 26.9889 35.227 28.3907C47.2004 38.4853 65.2501 36.8517 75.2473 24.7966C75.7189 24.2274 75.7242 23.9771 75.0865 23.5423C72.636 21.8717 70.0695 20.4304 67.3317 19.2815C66.7599 19.0417 66.4095 19.0865 65.9431 19.4765C63.9827 21.1313 61.9853 22.7439 60.0012 24.3723C59.2687 24.9731 58.4597 25.118 57.6244 24.6385C56.8629 24.2011 56.5757 23.4975 56.6864 22.628C56.7681 21.9903 57.1765 21.5766 57.6455 21.1945C59.0868 20.0167 60.5229 18.8336 62.0828 17.5503C59.7667 16.9074 57.5717 16.5728 55.3531 16.3883C50.3176 15.9693 45.3743 16.4726 40.5233 17.9061C39.161 18.3066 38.0385 17.7453 37.7513 16.6044C37.4562 15.4318 38.0991 14.4806 39.4957 14.0853C41.933 13.3949 44.3994 12.8469 46.929 12.6045C47.1846 12.5807 47.4375 12.5122 47.8223 12.4411C47.34 11.9958 46.9237 11.6453 46.5469 11.2553C45.8039 10.4806 45.767 9.34233 46.4283 8.57555C47.1372 7.75343 48.286 7.61641 49.1661 8.3463C50.4309 9.39767 51.6667 10.4886 52.8709 11.6084C53.4585 12.1565 54.083 12.3805 54.8893 12.4253C61.15 12.7705 67.0366 14.4753 72.578 17.3949C72.7519 17.4871 72.9153 17.603 73.0945 17.6794C73.2262 17.7374 73.271 17.964 73.4844 17.8744Z" fill="#20B46D"/>
<path d="M33.4011 8.70693C33.3906 9.78201 32.5395 10.6384 31.4697 10.6516C30.384 10.6647 29.4486 9.73458 29.4644 8.6595C29.4776 7.61868 30.3761 6.72805 31.4196 6.71224C32.5237 6.69643 33.4117 7.59233 33.4011 8.70693Z" fill="#20B46D"/>
<path d="M7.3042 52.0258C7.47021 54.3419 7.65993 56.6238 8.04991 58.8899C8.79034 63.1955 10.1658 67.2824 12.1341 71.1716C12.3897 71.6749 12.4477 72.1123 12.3186 72.6657C11.9497 74.2651 11.6546 75.883 11.3357 77.493C11.0854 78.7525 11.6625 79.7643 12.7692 80.0173C13.9549 80.2887 14.9193 79.6247 15.2065 78.3283C15.2988 77.9119 15.3752 77.4903 15.4648 77.0556C15.9206 77.0687 16.0076 77.4956 16.1999 77.7538C17.6992 79.7643 19.3672 81.622 21.1801 83.3532C22.1866 84.3123 23.3012 84.3861 24.1497 83.5587C24.9955 82.7313 24.9244 81.4876 23.9178 80.5206C18.6847 75.4956 15.0168 69.5195 12.9563 62.5605C12.9115 62.405 12.8192 62.2574 12.9457 62.0546C14.6769 62.7054 16.416 63.3615 18.1577 64.0071C19.5385 64.5183 20.6162 64.152 21.0589 63.04C21.5147 61.8912 20.9403 60.8345 19.5385 60.2996C17.2091 59.4143 14.8798 58.5316 12.5347 57.6857C12.0024 57.4934 11.7626 57.2167 11.6941 56.6554C11.3463 53.7701 11.3252 50.8848 11.4701 47.9837C11.5202 46.9666 11.8891 46.8269 12.7771 47.0219C24.2709 49.5383 31.7833 56.3893 35.1218 67.6803C36.4841 72.2836 36.2259 76.9633 35.3721 81.6536C34.7266 85.1977 35.0217 88.7365 35.994 92.2015C36.2127 92.9814 36.1073 93.1659 35.2799 93.2608C21.4805 94.8286 7.40697 85.6087 4.46105 70.2388C3.22787 63.8463 4.2318 57.77 7.3042 52.0258Z" fill="#FEFEFE"/>
<path d="M70.1303 92.038C75.872 88.602 80.5596 84.0671 84.2144 78.4704C84.5174 78.004 84.8705 77.7221 85.4106 77.5534C86.9442 77.0791 88.462 76.5469 89.9824 76.0225C91.342 75.5535 91.9507 74.5311 91.566 73.4112C91.1734 72.265 90.1036 71.8355 88.7386 72.2755C88.3697 72.3941 88.0008 72.5153 87.4923 72.6813C87.9297 71.5694 88.3276 70.5523 88.7255 69.5378C89.3368 67.9779 89.7926 66.3679 90.2142 64.7474C90.5989 63.2718 90.122 62.1783 88.9679 61.8541C87.7584 61.5142 86.7519 62.231 86.3803 63.7487C84.7176 70.5259 81.4977 76.4652 76.781 81.5981C76.5465 81.8537 76.37 82.191 75.922 82.307C75.6269 80.4809 75.3371 78.6786 75.042 76.8762C74.8338 75.5956 74.2594 74.929 73.2765 74.8104C71.9327 74.647 70.9024 75.622 71.0921 77.0317C71.4083 79.3769 71.7851 81.7141 72.2251 84.0382C72.4307 85.1238 72.3543 85.851 71.2976 86.5598C69.0842 88.0433 66.8313 89.4346 64.4493 90.6335C63.6614 91.0314 63.3478 90.9761 63.029 90.0907C59.1477 79.3373 62.0672 67.298 70.486 59.5485C73.2238 57.0268 76.3226 55.069 79.8403 53.8385C84.0009 52.384 87.7215 50.2444 90.7676 47.027C91.1918 46.5791 91.3526 46.7952 91.6187 47.1535C94.5567 51.1166 96.4302 55.5381 96.9572 60.4339C98.0744 70.8263 94.5751 79.4454 86.5516 86.133C82.001 89.9247 76.6572 91.8825 70.7443 92.2672C70.5019 92.2909 70.1804 92.5202 70.1303 92.038Z" fill="#FEFEFE"/>
</svg>
