<svg width="180" height="18" viewBox="0 0 180 18" fill="none" xmlns="http://www.w3.org/2000/svg">
<rect x="31.5742" y="2.25" width="14.625" height="13.275" fill="white"/>
<path d="M45.3368 15.3371H42.6698V11.1603C42.6698 10.1643 42.652 8.8822 41.2827 8.8822C39.8936 8.8822 39.681 9.9674 39.681 11.0878V15.3368H37.0141V6.74772H39.5744V7.92152H39.6102C39.8665 7.4834 40.2367 7.12299 40.6816 6.87865C41.1264 6.63432 41.6292 6.51522 42.1364 6.53404C44.8396 6.53404 45.338 8.3121 45.338 10.6252L45.3368 15.3371ZM34.0047 5.57371C33.1499 5.57385 32.4569 4.881 32.4567 4.02621C32.4566 3.17142 33.1494 2.47835 34.0042 2.47821C34.8589 2.478 35.552 3.17086 35.5522 4.02564C35.5522 4.43613 35.3892 4.82984 35.099 5.12015C34.8088 5.41047 34.4152 5.57362 34.0047 5.57371ZM35.3383 15.3372H32.6684V6.74772H35.3382V15.3371L35.3383 15.3372ZM46.6665 0.00131005H31.3283C30.6034 -0.00684619 30.0089 0.573865 30 1.29879V16.7009C30.0086 17.4262 30.603 18.0075 31.3282 17.9999H46.6665C47.3932 18.0089 47.9899 17.4276 48 16.7009V1.29759C47.9897 0.571263 47.3929 -0.00937744 46.6665 0.000114742" fill="#019D6D"/>
<path d="M62.4239 14.4276C63.3533 14.3156 64.2957 14.4362 65.2251 14.2855C65.6919 14.2124 66.1196 14.0574 66.5428 13.8937C65.4957 13.2307 64.5531 12.4729 63.6762 11.5644C63.362 11.2415 63.5889 10.699 64.0471 10.6861C64.4223 10.7033 64.7888 10.6733 65.1466 10.6C64.2346 9.45901 63.5278 8.23191 62.978 6.85412C62.8297 6.48382 63.266 6.10929 63.6194 6.22117C63.8245 6.30299 64.0339 6.35898 64.2477 6.402C63.5976 4.86058 63.4624 3.30629 63.8245 1.60122C63.9074 1.20941 64.431 1.11472 64.6972 1.37305C66.7828 3.39656 69.4182 4.36966 72.2368 4.83465C71.9881 2.93157 73.3582 0.907964 75.1558 0.244858C76.6481 -0.301953 78.6508 0.0726699 79.6543 1.31265C80.3263 0.895 81.2556 0.757194 82.0018 0.628029C82.3944 0.5634 82.7741 0.942345 82.5428 1.32552C82.2723 1.77332 82.0149 2.25118 81.7313 2.70762C82.3072 2.53966 82.9007 2.43633 83.494 2.36315C83.9217 2.30716 84.1791 2.95731 83.8519 3.21564C83.1581 3.76245 82.4687 4.38676 81.7313 4.88622C81.7095 9.72138 80.2783 13.7773 75.902 16.5286C72.2542 18.8279 65.4738 18.4404 62.3018 15.3102H62.2974C62.1577 15.2757 62.0836 15.1724 62.0574 15.0605C61.9353 14.8797 62.0225 14.6558 62.1839 14.5697C62.245 14.4964 62.3236 14.4404 62.4239 14.4276Z" fill="#019D6D"/>
<path d="M110.638 0H103.362C100.406 0 98 2.40551 98 5.3623V12.6377C98 15.5945 100.406 18 103.362 18H110.638C113.594 18 116 15.5945 116 12.6377V5.3623C116 2.40551 113.594 0 110.638 0ZM114.189 12.6377C114.189 14.5991 112.599 16.1892 110.638 16.1892H103.362C101.401 16.1892 99.8108 14.5991 99.8108 12.6377V5.3623C99.8108 3.40084 101.401 1.8108 103.362 1.8108H110.638C112.599 1.8108 114.189 3.40084 114.189 5.3623V12.6377Z" fill="#019D6D"/>
<path d="M106.999 4.34375C104.432 4.34375 102.344 6.43218 102.344 8.99916C102.344 11.5661 104.432 13.6546 106.999 13.6546C109.566 13.6546 111.655 11.5662 111.655 8.99916C111.655 6.43214 109.566 4.34375 106.999 4.34375ZM106.999 11.8438C105.428 11.8438 104.155 10.5703 104.155 8.99919C104.155 7.42813 105.428 6.15455 106.999 6.15455C108.57 6.15455 109.844 7.42813 109.844 8.99919C109.844 10.5702 108.57 11.8438 106.999 11.8438Z" fill="#019D6D"/>
<path d="M111.664 5.49664C112.281 5.49664 112.78 4.99721 112.78 4.38113C112.78 3.76505 112.281 3.26562 111.664 3.26562C111.048 3.26562 110.549 3.76505 110.549 4.38113C110.549 4.99721 111.048 5.49664 111.664 5.49664Z" fill="#019D6D"/>
<path d="M0.89 1H15.12C15.61 1 16 1.39 16 1.88V16.12C16 16.6 15.61 17 15.12 17H11.04V10.8H13.12L13.43 8.39H11.04V6.85C11.04 6.15 11.24 5.67 12.24 5.67H13.52V3.51C13.3 3.48 12.54 3.42 11.66 3.42C9.81 3.42 8.55 4.54 8.55 6.61V8.39H6.46V10.8H8.55V17H0.89C0.65568 17 0.430807 16.9076 0.264184 16.7429C0.0975614 16.5781 0.00263281 16.3543 0 16.12V1.88C0 1.39 0.4 1 0.89 1Z" fill="#019D6D"/>
<path d="M141.621 6.39616C142.765 7.21359 144.167 7.69455 145.681 7.69455V4.78316C145.394 4.78322 145.108 4.75333 144.828 4.69397V6.98566C143.314 6.98566 141.913 6.50476 140.769 5.68739V11.6288C140.769 14.601 138.358 17.0102 135.384 17.0102C134.275 17.0102 133.244 16.675 132.387 16.1C133.365 17.0992 134.728 17.719 136.237 17.719C139.21 17.719 141.621 15.3098 141.621 12.3375V6.39616H141.621ZM142.673 3.45891C142.088 2.82047 141.704 1.99538 141.621 1.08318V0.70874H140.813C141.017 1.86809 141.71 2.85857 142.673 3.45891H142.673ZM134.268 13.8193C133.941 13.3912 133.765 12.8674 133.765 12.329C133.765 10.9696 134.868 9.86741 136.228 9.86741C136.482 9.86728 136.734 9.90618 136.975 9.98275V7.00624C136.693 6.96759 136.408 6.95112 136.123 6.95718V9.27392C135.882 9.1973 135.629 9.15841 135.376 9.15864C134.015 9.15864 132.913 10.2607 132.913 11.6202C132.913 12.5816 133.464 13.4138 134.268 13.8193Z" fill="#019D6D"/>
<path d="M140.769 5.68733C141.913 6.5047 143.314 6.9856 144.828 6.9856V4.69391C143.983 4.51401 143.235 4.07274 142.673 3.45891C141.71 2.8585 141.017 1.86803 140.813 0.70874H138.691V12.3373C138.686 13.693 137.586 14.7907 136.228 14.7907C135.428 14.7907 134.718 14.4096 134.268 13.8192C133.464 13.4138 132.913 12.5815 132.913 11.6203C132.913 10.2609 134.015 9.1587 135.376 9.1587C135.636 9.1587 135.888 9.19925 136.123 9.27398V6.95724C133.202 7.01758 130.852 9.40329 130.852 12.3374C130.852 13.8021 131.438 15.1299 132.387 16.1001C133.244 16.675 134.275 17.0103 135.384 17.0103C138.358 17.0103 140.769 14.6009 140.769 11.6288V5.68739H140.769V5.68733Z" fill="#019D6D"/>
<path d="M144.828 4.69388V4.07436C144.066 4.07551 143.319 3.86225 142.673 3.45894C143.245 4.08508 143.998 4.51687 144.828 4.694V4.69388ZM140.813 0.708706C140.794 0.597936 140.779 0.486423 140.769 0.374445V0H137.839V11.6287C137.834 12.9843 136.733 14.0819 135.376 14.0819C134.991 14.0825 134.611 13.9926 134.268 13.8193C134.718 14.4097 135.428 14.7906 136.228 14.7906C137.585 14.7906 138.686 13.6931 138.691 12.3374V0.708768H140.813V0.708706ZM136.123 6.95721V6.29756C135.878 6.2641 135.632 6.24736 135.385 6.24746C132.411 6.24746 130 8.65682 130 11.6287C130 13.492 130.947 15.1341 132.387 16.1C131.438 15.1299 130.853 13.802 130.853 12.3374C130.853 9.40332 133.202 7.0176 136.123 6.95727V6.95721Z" fill="#019D6D"/>
<path d="M179.015 4.13246C178.904 3.72029 178.686 3.34453 178.384 3.04259C178.082 2.74066 177.707 2.52308 177.294 2.41153C175.785 2 169.713 2 169.713 2C169.713 2 163.639 2.01246 162.13 2.42399C161.718 2.53554 161.342 2.75313 161.04 3.05508C160.738 3.35703 160.521 3.73281 160.409 4.145C159.953 6.82609 159.776 10.9115 160.422 13.4853C160.533 13.8975 160.751 14.2732 161.053 14.5752C161.355 14.8771 161.731 15.0947 162.143 15.2062C163.652 15.6178 169.725 15.6178 169.725 15.6178C169.725 15.6178 175.798 15.6178 177.307 15.2062C177.719 15.0947 178.095 14.8771 178.397 14.5752C178.699 14.2732 178.916 13.8975 179.028 13.4853C179.509 10.8004 179.657 6.71762 179.015 4.13254V4.13246Z" fill="#019D6D"/>
<path d="M167.779 11.727L172.817 8.80894L167.779 5.89087V11.727Z" fill="white"/>
</svg>
