<svg width="28" height="28" viewBox="0 0 28 28" fill="none" xmlns="http://www.w3.org/2000/svg">
<circle cx="14" cy="14" r="14" fill="#505252"/>
<path d="M15.4702 16.2729H12.5273C12.5273 15.6714 12.5684 15.1416 12.6504 14.6836C12.7393 14.2188 12.8896 13.8018 13.1016 13.4326C13.3135 13.0635 13.6006 12.7217 13.9629 12.4072C14.2842 12.1406 14.561 11.8843 14.7935 11.6382C15.0259 11.3921 15.2036 11.1426 15.3267 10.8896C15.4497 10.6367 15.5112 10.3667 15.5112 10.0796C15.5112 9.72412 15.46 9.43359 15.3574 9.20801C15.2617 8.98242 15.1147 8.81494 14.9165 8.70557C14.7251 8.58936 14.4824 8.53125 14.1885 8.53125C13.9492 8.53125 13.7236 8.58936 13.5117 8.70557C13.3066 8.82178 13.1392 9.00293 13.0093 9.24902C12.8794 9.48828 12.8076 9.80615 12.7939 10.2026H9.31787C9.33838 9.18408 9.56396 8.35693 9.99463 7.72119C10.4321 7.07861 11.0132 6.61035 11.7378 6.31641C12.4692 6.01563 13.2861 5.86523 14.1885 5.86523C15.1865 5.86523 16.0444 6.01904 16.7622 6.32666C17.48 6.63428 18.0303 7.09229 18.4131 7.70068C18.7959 8.30225 18.9873 9.04395 18.9873 9.92578C18.9873 10.5137 18.8745 11.0264 18.6489 11.4639C18.4302 11.8945 18.1328 12.2979 17.7568 12.6738C17.3877 13.043 16.9741 13.4395 16.5161 13.8633C16.1196 14.2119 15.8496 14.5674 15.7061 14.9297C15.5625 15.2852 15.4839 15.7329 15.4702 16.2729ZM12.1069 19.3901C12.1069 18.8979 12.2847 18.4878 12.6401 18.1597C12.9956 17.8247 13.457 17.6572 14.0244 17.6572C14.5918 17.6572 15.0532 17.8247 15.4087 18.1597C15.7642 18.4878 15.9419 18.8979 15.9419 19.3901C15.9419 19.8823 15.7642 20.2959 15.4087 20.6309C15.0532 20.959 14.5918 21.123 14.0244 21.123C13.457 21.123 12.9956 20.959 12.6401 20.6309C12.2847 20.2959 12.1069 19.8823 12.1069 19.3901Z" fill="white"/>
</svg>
