<svg width="215" height="18" viewBox="0 0 215 18" fill="none" xmlns="http://www.w3.org/2000/svg">
<rect x="38.5742" y="2.25" width="14.625" height="13.275" fill="white"/>
<path d="M52.3368 15.3371H49.6698V11.1603C49.6698 10.1643 49.652 8.8822 48.2827 8.8822C46.8936 8.8822 46.681 9.9674 46.681 11.0878V15.3368H44.0141V6.74772H46.5744V7.92152H46.6102C46.8665 7.4834 47.2367 7.12299 47.6816 6.87865C48.1264 6.63432 48.6292 6.51522 49.1364 6.53404C51.8396 6.53404 52.338 8.3121 52.338 10.6252L52.3368 15.3371ZM41.0047 5.57371C40.1499 5.57385 39.4569 4.881 39.4567 4.02621C39.4566 3.17142 40.1494 2.47835 41.0042 2.47821C41.8589 2.478 42.552 3.17086 42.5522 4.02564C42.5522 4.43613 42.3892 4.82984 42.099 5.12015C41.8088 5.41047 41.4152 5.57362 41.0047 5.57371ZM42.3383 15.3372H39.6684V6.74772H42.3382V15.3371L42.3383 15.3372ZM53.6665 0.00131005H38.3283C37.6034 -0.00684619 37.0089 0.573865 37 1.29879V16.7009C37.0086 17.4262 37.603 18.0075 38.3282 17.9999H53.6665C54.3932 18.0089 54.9899 17.4276 55 16.7009V1.29759C54.9897 0.571263 54.3929 -0.00937744 53.6665 0.000114742" fill="black"/>
<path d="M76.4239 14.4276C77.3533 14.3156 78.2957 14.4362 79.2251 14.2855C79.6919 14.2124 80.1196 14.0574 80.5428 13.8937C79.4957 13.2307 78.5531 12.4729 77.6762 11.5644C77.362 11.2415 77.5889 10.699 78.0471 10.6861C78.4223 10.7033 78.7888 10.6733 79.1466 10.6C78.2346 9.45901 77.5278 8.23191 76.978 6.85412C76.8297 6.48382 77.266 6.10929 77.6194 6.22117C77.8245 6.30299 78.0339 6.35898 78.2477 6.402C77.5976 4.86058 77.4624 3.30629 77.8245 1.60122C77.9074 1.20941 78.431 1.11472 78.6972 1.37305C80.7828 3.39656 83.4182 4.36966 86.2368 4.83465C85.9881 2.93157 87.3582 0.907964 89.1558 0.244858C90.6481 -0.301953 92.6508 0.0726699 93.6543 1.31265C94.3263 0.895 95.2556 0.757194 96.0018 0.628029C96.3944 0.5634 96.7741 0.942345 96.5428 1.32552C96.2723 1.77332 96.0149 2.25118 95.7313 2.70762C96.3072 2.53966 96.9007 2.43633 97.494 2.36315C97.9217 2.30716 98.1791 2.95731 97.8519 3.21564C97.1581 3.76245 96.4687 4.38676 95.7313 4.88622C95.7095 9.72138 94.2783 13.7773 89.902 16.5286C86.2542 18.8279 79.4738 18.4404 76.3018 15.3102H76.2974C76.1577 15.2757 76.0836 15.1724 76.0574 15.0605C75.9353 14.8797 76.0225 14.6558 76.1839 14.5697C76.245 14.4964 76.3236 14.4404 76.4239 14.4276Z" fill="black"/>
<path d="M131.638 0H124.362C121.406 0 119 2.40551 119 5.3623V12.6377C119 15.5945 121.406 18 124.362 18H131.638C134.594 18 137 15.5945 137 12.6377V5.3623C137 2.40551 134.594 0 131.638 0ZM135.189 12.6377C135.189 14.5991 133.599 16.1892 131.638 16.1892H124.362C122.401 16.1892 120.811 14.5991 120.811 12.6377V5.3623C120.811 3.40084 122.401 1.8108 124.362 1.8108H131.638C133.599 1.8108 135.189 3.40084 135.189 5.3623V12.6377Z" fill="black"/>
<path d="M127.999 4.34375C125.432 4.34375 123.344 6.43218 123.344 8.99916C123.344 11.5661 125.432 13.6546 127.999 13.6546C130.566 13.6546 132.655 11.5662 132.655 8.99916C132.655 6.43214 130.566 4.34375 127.999 4.34375ZM127.999 11.8438C126.428 11.8438 125.155 10.5703 125.155 8.99919C125.155 7.42813 126.428 6.15455 127.999 6.15455C129.57 6.15455 130.844 7.42813 130.844 8.99919C130.844 10.5702 129.57 11.8438 127.999 11.8438Z" fill="black"/>
<path d="M132.664 5.49664C133.281 5.49664 133.78 4.99721 133.78 4.38113C133.78 3.76505 133.281 3.26562 132.664 3.26562C132.048 3.26562 131.549 3.76505 131.549 4.38113C131.549 4.99721 132.048 5.49664 132.664 5.49664Z" fill="black"/>
<path d="M0.89 1H15.12C15.61 1 16 1.39 16 1.88V16.12C16 16.6 15.61 17 15.12 17H11.04V10.8H13.12L13.43 8.39H11.04V6.85C11.04 6.15 11.24 5.67 12.24 5.67H13.52V3.51C13.3 3.48 12.54 3.42 11.66 3.42C9.81 3.42 8.55 4.54 8.55 6.61V8.39H6.46V10.8H8.55V17H0.89C0.65568 17 0.430807 16.9076 0.264184 16.7429C0.0975614 16.5781 0.00263281 16.3543 0 16.12V1.88C0 1.39 0.4 1 0.89 1Z" fill="black"/>
<path d="M169.621 6.39616C170.765 7.21359 172.167 7.69455 173.681 7.69455V4.78316C173.394 4.78322 173.108 4.75333 172.828 4.69397V6.98566C171.314 6.98566 169.913 6.50476 168.769 5.68739V11.6288C168.769 14.601 166.358 17.0102 163.384 17.0102C162.275 17.0102 161.244 16.675 160.387 16.1C161.365 17.0992 162.728 17.719 164.237 17.719C167.21 17.719 169.621 15.3098 169.621 12.3375V6.39616H169.621ZM170.673 3.45891C170.088 2.82047 169.704 1.99538 169.621 1.08318V0.70874H168.813C169.017 1.86809 169.71 2.85857 170.673 3.45891H170.673ZM162.268 13.8193C161.941 13.3912 161.765 12.8674 161.765 12.329C161.765 10.9696 162.868 9.86741 164.228 9.86741C164.482 9.86728 164.734 9.90618 164.975 9.98275V7.00624C164.693 6.96759 164.408 6.95112 164.123 6.95718V9.27392C163.882 9.1973 163.629 9.15841 163.376 9.15864C162.015 9.15864 160.913 10.2607 160.913 11.6202C160.913 12.5816 161.464 13.4138 162.268 13.8193Z" fill="black"/>
<path d="M168.769 5.68733C169.913 6.5047 171.314 6.9856 172.828 6.9856V4.69391C171.983 4.51401 171.235 4.07274 170.673 3.45891C169.71 2.8585 169.017 1.86803 168.813 0.70874H166.691V12.3373C166.686 13.693 165.586 14.7907 164.228 14.7907C163.428 14.7907 162.718 14.4096 162.268 13.8192C161.464 13.4138 160.913 12.5815 160.913 11.6203C160.913 10.2609 162.015 9.1587 163.376 9.1587C163.636 9.1587 163.888 9.19925 164.123 9.27398V6.95724C161.202 7.01758 158.852 9.40329 158.852 12.3374C158.852 13.8021 159.438 15.1299 160.387 16.1001C161.244 16.675 162.275 17.0103 163.384 17.0103C166.358 17.0103 168.769 14.6009 168.769 11.6288V5.68739H168.769V5.68733Z" fill="black"/>
<path d="M172.828 4.69388V4.07436C172.066 4.07551 171.319 3.86225 170.673 3.45894C171.245 4.08508 171.998 4.51687 172.828 4.694V4.69388ZM168.813 0.708706C168.794 0.597936 168.779 0.486423 168.769 0.374445V0H165.839V11.6287C165.834 12.9843 164.733 14.0819 163.376 14.0819C162.991 14.0825 162.611 13.9926 162.268 13.8193C162.718 14.4097 163.428 14.7906 164.228 14.7906C165.585 14.7906 166.686 13.6931 166.691 12.3374V0.708768H168.813V0.708706ZM164.123 6.95721V6.29756C163.878 6.2641 163.632 6.24736 163.385 6.24746C160.411 6.24746 158 8.65682 158 11.6287C158 13.492 158.947 15.1341 160.387 16.1C159.438 15.1299 158.853 13.802 158.853 12.3374C158.853 9.40332 161.202 7.0176 164.123 6.95727V6.95721Z" fill="black"/>
<path d="M214.015 4.13246C213.904 3.72029 213.686 3.34453 213.384 3.04259C213.082 2.74066 212.707 2.52308 212.294 2.41153C210.785 2 204.713 2 204.713 2C204.713 2 198.639 2.01246 197.13 2.42399C196.718 2.53554 196.342 2.75313 196.04 3.05508C195.738 3.35703 195.521 3.73281 195.409 4.145C194.953 6.82609 194.776 10.9115 195.422 13.4853C195.533 13.8975 195.751 14.2732 196.053 14.5752C196.355 14.8771 196.731 15.0947 197.143 15.2062C198.652 15.6178 204.725 15.6178 204.725 15.6178C204.725 15.6178 210.798 15.6178 212.307 15.2062C212.719 15.0947 213.095 14.8771 213.397 14.5752C213.699 14.2732 213.916 13.8975 214.028 13.4853C214.509 10.8004 214.657 6.71762 214.015 4.13254V4.13246Z" fill="black"/>
<path d="M202.779 11.727L207.817 8.80894L202.779 5.89087V11.727Z" fill="white"/>
</svg>
