<svg width="97" height="98" viewBox="0 0 97 98" fill="none" xmlns="http://www.w3.org/2000/svg">
<path d="M58.7214 97.9429C51.9038 97.9429 45.0861 97.9429 38.2685 97.9429C38.2635 97.9126 38.2458 97.8646 38.2584 97.852C39.8549 96.1596 39.4204 93.957 39.6755 91.9564C39.9786 89.5845 40.1428 87.1924 40.3828 84.8129C41.0547 78.1267 38.8748 72.7337 33.2671 68.8589C32.4032 68.2627 31.4585 67.8257 30.481 67.4696C28.2303 66.6537 26.3661 65.3275 24.8758 63.4432C23.4284 61.6144 21.875 59.8714 20.3821 58.078C18.9524 56.3603 17.0958 55.5874 14.8679 55.7288C13.8019 55.7945 13.6201 55.6152 13.6958 54.5972C14.0545 49.7928 14.5471 44.9985 14.9386 40.1966C15.0245 39.1306 15.0927 38.0622 15.2266 36.9962C15.6434 33.6973 13.1401 30.5676 9.75279 30.0927C6.44629 29.6279 3.21557 32.0049 2.76594 35.3013C2.382 38.1102 2.25317 40.9468 1.98542 43.7658C1.67472 47.0572 1.40949 50.3536 1.11901 53.6474C0.957345 55.4964 0.785578 57.348 0.636546 59.1995C0.580974 59.8916 0.808312 60.7252 0.0176818 61.2102C0.0176818 41.3889 0.0227338 21.5675 0 1.74873C0 1.09956 0.126299 0.970731 0.775475 0.973257C14.7264 0.998516 28.6774 0.990938 42.6284 0.990938C42.6334 1.45824 42.2217 1.4153 41.9565 1.49866C40.0746 2.08974 38.7965 3.32494 37.8265 5.0224C35.7325 8.69264 33.593 12.3351 31.4686 15.9877C30.6275 17.4325 30.8321 18.261 32.2997 19.1072C34.6488 20.4612 37.0005 21.8126 39.3396 23.1842C40.7086 23.9874 41.5826 23.7475 42.3808 22.343C43.9545 19.5745 45.5964 16.8465 47.1701 14.078C47.2938 13.8583 47.4151 13.636 47.5717 13.4389C48.0188 12.8807 48.3623 12.8706 48.7362 13.497C49.3172 14.4721 49.9133 15.437 50.4488 16.4398C50.757 17.0208 50.5675 17.3921 50.0623 17.6952C49.7643 17.872 49.4485 18.0185 49.1732 18.2358C48.0036 19.1653 48.1678 20.5571 49.5319 21.1735C50.8277 21.7595 52.2018 22.1334 53.5355 22.6183C56.0539 23.5378 58.5774 24.437 61.116 25.2959C62.5609 25.7859 63.4626 25.2656 63.7405 23.7778C64.473 19.8423 65.2106 15.9068 65.933 11.9688C66.0694 11.2211 65.9886 10.5619 65.3824 10.0845C64.7332 9.57421 63.9804 9.66009 63.3338 10.0541C61.6894 11.0544 61.6818 10.5568 60.9013 9.27361C59.8353 7.52311 58.8578 5.71957 57.8272 3.94886C57.1452 2.7768 56.2131 1.95586 54.9501 1.48098C54.7152 1.39257 54.3464 1.41025 54.3716 0.990938C68.31 0.990938 82.2483 0.998516 96.1866 0.97073C96.8914 0.968204 97 1.1425 97 1.8043C96.9798 21.6711 96.9823 41.5354 96.9823 61.4022C96.4696 61.3466 96.5681 60.9096 96.5251 60.6065C96.2473 58.6716 96.1462 56.719 95.9745 54.7715C95.7496 52.2607 95.5349 49.7473 95.3228 47.2365C95.1005 44.5994 94.8807 41.9597 94.6281 39.3251C94.4917 37.9131 94.474 36.491 94.1911 35.0941C93.5142 31.7649 90.3617 29.5623 87.0249 30.0978C83.7184 30.6307 81.3718 33.8842 81.786 37.2286C82.0917 39.699 82.2508 42.1871 82.4554 44.6676C82.7257 47.9665 83.0667 51.2579 83.3016 54.5593C83.3749 55.6025 83.2057 55.7996 82.1725 55.7339C79.9067 55.5924 78.0274 56.3831 76.5775 58.131C74.8624 60.1948 73.132 62.2408 71.4018 64.2894C70.1741 65.7418 68.5777 66.7017 66.7994 67.3509C63.3085 68.6239 60.6765 70.915 58.7365 74.0548C56.7006 77.3461 56.2535 80.9507 56.6096 84.7144C56.8951 87.7254 57.1805 90.7389 57.471 93.7498C57.5443 94.5026 57.6756 95.2503 57.711 96.008C57.7312 96.4627 57.9535 96.8467 58.2616 97.1852C58.4536 97.3999 58.7795 97.559 58.7214 97.9429Z" fill="#FEFEFE"/>
<path d="M0.0151978 61.2057C0.527971 59.8391 0.424406 58.3892 0.555757 56.9797C1.21756 49.8514 1.79096 42.7155 2.46034 35.5898C2.79882 31.9877 5.94619 29.4794 9.57602 29.7825C13.0391 30.0705 15.7419 33.1926 15.4994 36.7492C15.2898 39.8637 14.9639 42.9707 14.6861 46.0801C14.4208 49.0633 14.1657 52.049 13.8803 55.0322C13.8373 55.4944 13.9889 55.5652 14.3931 55.5147C17.1565 55.1534 19.2808 56.232 20.9833 58.3741C22.4358 60.2003 23.9791 61.9534 25.4745 63.7468C26.7324 65.2573 28.2531 66.4345 30.1147 67.0533C36.5332 69.1827 41.7165 75.9725 40.6784 84.7351C40.2565 88.3044 39.9206 91.8837 39.6301 95.468C39.5417 96.5592 39.2057 97.3878 38.2661 97.9536C30.9433 97.9536 23.6204 97.9536 16.2976 97.9536C15.0397 97.5242 14.6052 96.7386 14.7618 95.2432C14.9867 93.0835 15.1837 90.9238 15.3302 88.7565C15.3731 88.1402 15.2039 87.688 14.8098 87.2182C11.1421 82.8508 7.48956 78.4732 3.80164 74.121C1.69245 71.6329 0.257691 68.872 0.0151978 65.5706C0.0151978 65.2548 0.0151978 64.9391 0.0151978 64.6233C0.166756 64.055 0.166756 63.4866 0.0151978 62.9183C0.0151978 62.7288 0.0151978 62.5394 0.0151978 62.3499C0.133919 62.2237 0.133919 62.0974 0.0151978 61.9711C0.0151978 61.7109 0.0151978 61.4583 0.0151978 61.2057Z" fill="#019D6D"/>
<path d="M58.7213 97.9426C57.7817 97.3793 57.4457 96.5508 57.3573 95.4596C57.0315 91.4054 56.5086 87.3664 56.2484 83.3096C55.7786 76.0272 59.8126 69.8058 66.61 67.1611C68.6282 66.3755 70.3231 65.2009 71.6947 63.5262C73.2129 61.6721 74.779 59.856 76.3148 58.0145C77.9061 56.1049 79.9193 55.2132 82.4024 55.4961C82.9808 55.5618 83.1501 55.4911 83.0894 54.8394C82.5312 48.873 82.0007 42.9066 81.4905 36.9352C81.1848 33.3408 83.8093 30.1505 87.3154 29.7867C90.9907 29.4053 94.1709 31.9414 94.5371 35.6798C95.0828 41.2648 95.5374 46.8623 96.0275 52.4523C96.2826 55.342 96.5327 58.2317 96.7827 61.124C96.7954 61.2579 96.8206 61.3665 96.9747 61.3943C96.9747 61.5837 96.9747 61.7732 96.9747 61.9626C96.856 62.0889 96.856 62.2152 96.9747 62.3415C96.9747 62.531 96.9747 62.7204 96.9747 62.9099C96.8156 63.4151 96.8156 63.9202 96.9747 64.4254C96.9747 64.8675 96.9747 65.3095 96.9747 65.7516C96.6691 69.6062 94.57 72.5465 92.1552 75.3553C88.7451 79.3236 85.4209 83.3627 82.0487 87.3638C81.7229 87.7503 81.5789 88.1343 81.6244 88.6546C81.8214 90.88 81.9982 93.1079 82.2281 95.3308C82.3771 96.7731 81.9224 97.5258 80.6872 97.9477C73.3669 97.9426 66.0441 97.9426 58.7213 97.9426Z" fill="#019D6D"/>
<path d="M54.3664 0.985742C56.3948 1.52377 57.6275 2.90801 58.5646 4.71408C59.4765 6.47216 60.5525 8.14688 61.5149 9.8797C61.7953 10.3849 62.01 10.5971 62.5657 10.2056C63.465 9.57406 64.4299 9.04108 65.5085 9.83424C66.5568 10.6047 66.2461 11.6681 66.0541 12.6936C65.3721 16.3487 64.685 20.0013 64.0131 23.6564C63.6696 25.5231 62.7047 26.1091 60.9239 25.4827C57.2157 24.1767 53.5126 22.8582 49.7995 21.5649C48.8977 21.2516 48.203 20.7793 48.1273 19.7512C48.0565 18.7686 48.6224 18.175 49.4484 17.7633C49.701 17.637 49.9308 17.4652 50.1834 17.3389C50.4587 17.2 50.5446 17.0459 50.3703 16.7504C49.6403 15.5152 48.9255 14.2724 48.1348 12.9109C47.7837 13.502 47.4958 13.9768 47.2154 14.4593C45.6341 17.1823 44.0579 19.9078 42.4716 22.6258C41.6557 24.0226 40.7388 24.2601 39.3242 23.4442C36.869 22.0296 34.4188 20.6075 31.9711 19.1803C30.5768 18.367 30.3368 17.4501 31.1578 16.033C33.176 12.5446 35.2802 9.10423 37.1999 5.56281C38.4376 3.27933 40.0492 1.60713 42.6232 0.983215C44.3913 0.983215 46.157 0.983215 47.9252 0.983215C50.0091 1.14488 52.0905 1.14488 54.1745 0.983215C54.2401 0.985741 54.3033 0.985742 54.3664 0.985742Z" fill="#019D6D"/>
<path d="M80.6899 97.9414C81.8518 97.3251 82.1196 96.3551 81.9705 95.0997C81.7053 92.8465 81.5613 90.5782 81.3315 88.32C81.286 87.8653 81.5235 87.6152 81.7634 87.3298C85.3907 83.0053 88.9852 78.6531 92.6605 74.369C94.7596 71.9213 96.2853 69.2388 96.7829 66.0232C96.8031 65.8918 96.8309 65.7807 96.9799 65.7479C96.9799 76.2256 96.9723 86.7059 96.9976 97.1836C97.0001 97.8328 96.8713 97.9642 96.2221 97.9591C91.0439 97.9263 85.8656 97.9414 80.6899 97.9414Z" fill="#FEFEFE"/>
<path d="M0.0151958 65.5637C0.353677 66.1093 0.310735 66.7509 0.464819 67.3445C1.04579 69.5699 2.03345 71.5907 3.50862 73.3564C7.35063 77.9511 11.1952 82.5408 15.0599 87.1153C15.4944 87.6306 15.6914 88.098 15.608 88.8027C15.3554 90.9927 15.2342 93.1979 14.9942 95.3904C14.8654 96.5726 15.2898 97.3885 16.3002 97.9467C11.0916 97.9467 5.88556 97.9366 0.677001 97.9619C0.113709 97.9644 -0.00248605 97.8482 3.99213e-05 97.2824C0.0202477 86.7087 0.0151958 76.1349 0.0151958 65.5637Z" fill="#FEFEFE"/>
<path d="M54.1771 0.986816C54.0306 1.20658 53.8032 1.17879 53.5885 1.17879C51.9012 1.17879 50.2138 1.17626 48.5265 1.17626C48.3092 1.17626 48.0844 1.19395 47.9303 0.986816C50.0117 0.986816 52.0931 0.986816 54.1771 0.986816Z" fill="#111111"/>
<path d="M0.0151978 62.9106C0.315789 63.479 0.323367 64.0473 0.0151978 64.6157C0.0151978 64.0473 0.0151978 63.479 0.0151978 62.9106Z" fill="#272727"/>
<path d="M96.9772 64.4262C96.6943 63.921 96.6842 63.4158 96.9772 62.9106C96.9772 63.4158 96.9772 63.921 96.9772 64.4262Z" fill="#282828"/>
<path d="M0.0151978 61.9631C0.303159 62.0894 0.257691 62.2157 0.0151978 62.342C0.0151978 62.2157 0.0151978 62.0894 0.0151978 61.9631Z" fill="#868686"/>
<path d="M96.9771 62.342C96.7371 62.2157 96.6891 62.0894 96.9771 61.9631C96.9771 62.0894 96.9771 62.2157 96.9771 62.342Z" fill="#868686"/>
<path d="M30.7689 44.2106C34.4972 44.2106 38.0538 44.2106 41.6104 44.2106C43.7373 44.2106 44.3208 44.7891 44.3182 46.8907C44.3157 49.5707 44.3157 52.2533 44.3107 54.9334C44.3056 56.651 43.6337 57.3356 41.8984 57.3331C37.387 57.3255 32.8781 57.3103 28.3667 57.2724C25.8609 57.2522 23.9488 56.1155 22.6807 53.9735C21.0439 51.2126 19.4626 48.4189 17.8637 45.6378C16.8508 43.8772 16.8508 42.104 17.8586 40.3433C19.0635 38.2417 20.2634 36.1351 21.5087 34.0587C21.8042 33.5636 21.8118 33.2984 21.2611 33.0685C21.001 32.9599 20.7736 32.7806 20.5236 32.6492C19.7506 32.24 19.3414 31.606 19.4248 30.7295C19.5081 29.8454 20.0714 29.3326 20.8797 29.0497C23.9639 27.9661 27.0456 26.8799 30.1273 25.7937C30.8977 25.5234 31.6682 25.2456 32.4411 24.9829C33.9163 24.4853 34.9469 25.0688 35.2323 26.5768C35.9851 30.5678 36.7277 34.5614 37.4729 38.5524C37.632 39.4138 37.5183 40.1943 36.7428 40.7424C35.9724 41.2881 35.2146 41.1491 34.4417 40.7071C33.1863 39.9897 33.1787 40.0023 32.4638 41.2476C31.9384 42.1722 31.408 43.0967 30.7689 44.2106Z" fill="#019D6D"/>
<path d="M66.5671 43.589C64.8848 40.6512 63.2757 37.8474 61.6692 35.0436C61.3711 34.5258 61.0554 34.0155 60.7876 33.4825C60.2749 32.4671 60.4795 31.4996 61.4393 30.9313C64.1472 29.3298 66.8752 27.7561 69.621 26.2203C70.5404 25.7076 71.5508 25.993 72.0838 26.915C74.5315 31.1359 77.0044 35.3416 79.3334 39.6257C80.3715 41.5353 80.2351 43.6167 79.1692 45.5239C77.5248 48.4616 75.8172 51.3664 74.092 54.2587C73.1296 55.8703 71.6468 56.6685 69.7624 56.6735C67.3325 56.6836 64.9025 56.6988 62.475 56.6609C61.8511 56.6508 61.6111 56.8251 61.7046 57.4465C61.7374 57.6612 61.7071 57.8885 61.7096 58.1083C61.7197 58.9924 61.4495 59.7375 60.5906 60.124C59.7469 60.5029 59.0144 60.2579 58.3349 59.6718C55.2507 57.017 52.1488 54.385 49.0646 51.7302C47.9052 50.7324 47.9229 49.5275 49.0974 48.5146C52.1589 45.8825 55.2356 43.2682 58.292 40.631C58.9664 40.0475 59.6838 39.7545 60.5376 40.1183C61.4419 40.5047 61.7071 41.2726 61.7122 42.1971C61.7197 43.5864 61.7324 43.5864 63.1696 43.5864C64.2457 43.589 65.3167 43.589 66.5671 43.589Z" fill="#019D6D"/>
<path d="M27.3767 94.1551C24.8204 94.1551 22.2641 94.1375 19.7078 94.1678C19.0991 94.1753 18.897 94.044 18.9728 93.3999C19.1748 91.6772 19.2759 89.9443 19.4805 88.2216C19.6043 87.186 19.3845 86.3499 18.6873 85.5289C14.9666 81.1565 11.4075 76.64 7.56798 72.3787C4.39536 68.8575 3.45569 64.9422 4.02151 60.3374C4.69342 54.8636 5.02433 49.3468 5.50931 43.8478C5.74423 41.1778 5.92357 38.5003 6.26205 35.843C6.52223 33.7969 8.86886 32.8724 10.5436 34.0622C11.41 34.676 11.8116 35.5525 11.7232 36.5982C11.2761 41.8472 10.8038 47.0912 10.344 52.3401C10.243 53.5021 10.1546 54.6666 10.0409 55.8285C9.91461 57.1016 9.78074 58.3292 9.2225 59.5568C8.1818 61.8428 8.44197 64.1718 10.0333 66.1471C12.8043 69.585 15.6789 72.9395 18.5307 76.3116C19.2885 77.2084 20.3974 77.3018 21.2234 76.6249C22.0898 75.9151 22.153 74.7632 21.327 73.7705C18.6595 70.5726 15.9719 67.3949 13.3019 64.1971C12.2638 62.9517 12.1779 61.5069 13.0317 60.3879C14.1987 58.8622 16.3028 58.7839 17.6214 60.2894C19.2835 62.1889 20.89 64.1364 22.5016 66.0764C24.1258 68.0315 26.0455 69.6658 28.4578 70.4312C33.6992 72.0933 37.7711 77.3675 36.9122 84.4175C36.546 87.4209 36.2808 90.4394 36.0256 93.4554C35.9751 94.0541 35.7857 94.1703 35.2375 94.1652C32.6156 94.14 29.9961 94.1551 27.3767 94.1551Z" fill="#FEFEFE"/>
<path d="M69.5272 94.156C66.9406 94.156 64.3515 94.1585 61.7649 94.1535C61.4113 94.1535 61.0374 94.2823 60.9844 93.6559C60.6888 90.2003 60.3327 86.7499 60.0245 83.2943C59.5243 77.6841 63.0178 72.3013 68.1834 70.5962C70.7169 69.7601 72.7807 68.1486 74.4882 66.0874C76.0367 64.2156 77.6053 62.3616 79.1764 60.5075C80.4293 59.0273 82.1748 58.7898 83.4984 59.9038C84.8169 61.0127 84.8902 62.7708 83.6424 64.2636C81.0128 67.411 78.3681 70.5432 75.7361 73.6906C74.8697 74.7287 74.8671 75.7922 75.6931 76.5525C76.4863 77.28 77.6482 77.2623 78.3909 76.3883C81.3084 72.9504 84.2739 69.5429 87.055 65.9964C88.76 63.8216 88.7448 61.3209 87.4793 58.8707C87.2697 58.4665 87.1509 58.08 87.1105 57.6279C86.5144 50.7471 85.9082 43.8664 85.2893 36.9856C85.1276 35.1896 86.0749 33.7751 87.6486 33.5654C89.3031 33.3457 90.6267 34.4217 90.8136 36.2985C91.2001 40.1911 91.5133 44.0886 91.8493 47.9862C92.2559 52.6997 92.6071 57.4182 93.0744 62.1266C93.4154 65.5468 92.5616 68.5553 90.364 71.1823C86.5169 75.7795 82.6977 80.3996 78.7849 84.9387C77.7518 86.1386 77.2895 87.2955 77.575 88.8767C77.8478 90.3923 77.8528 91.9534 78.0221 93.4892C78.0827 94.0373 77.9286 94.1762 77.3855 94.1712C74.7661 94.1409 72.1467 94.156 69.5272 94.156Z" fill="#FEFEFE"/>
<path d="M48.2864 4.77321C48.3293 5.17484 48.0994 5.37692 47.9656 5.60931C45.4421 9.96915 42.901 14.3163 40.4028 18.6888C40.0643 19.2824 39.8496 19.439 39.2206 19.0248C38.0915 18.2821 36.8993 17.633 35.7146 16.9787C35.3054 16.7539 35.1892 16.5923 35.4595 16.1325C37.3969 12.8538 39.2989 9.55236 41.2136 6.26101C41.8047 5.24304 42.6913 4.75806 43.8684 4.76816C45.3385 4.78332 46.8087 4.77321 48.2864 4.77321Z" fill="#FEFEFE"/>
<path d="M53.9397 15.1513C53.7275 15.1059 53.682 14.9088 53.5911 14.7548C52.5832 13.0169 51.5855 11.274 50.5675 9.54367C50.3856 9.2355 50.373 8.99806 50.5624 8.68484C51.1813 7.66434 51.7471 6.61606 52.3685 5.59557C53.0455 4.48161 54.0281 4.49425 54.7 5.63599C55.9251 7.71739 57.1224 9.819 58.3273 11.913C58.4763 12.1707 58.7264 12.4208 58.2743 12.6734C56.9052 13.4387 55.5512 14.2319 54.1923 15.0149C54.1114 15.0655 54.0256 15.1059 53.9397 15.1513Z" fill="#FEFEFE"/>
<path d="M61.7601 15.0281C61.3786 17.0464 61.0149 18.9232 60.679 20.8025C60.6108 21.1865 60.5249 21.3507 60.0904 21.1915C58.3071 20.5348 56.5136 19.9083 54.5358 19.2036C57.0011 17.7789 59.3175 16.4402 61.7601 15.0281Z" fill="#FDFDFD"/>
<path d="M23.5725 47.9748C26.5633 47.9748 29.3848 47.9722 32.2038 47.9748C34.7222 47.9773 37.2431 48.0101 39.7615 47.9823C40.3829 47.9748 40.5673 48.1465 40.5446 48.7704C40.4966 50.1547 40.5117 51.5414 40.5345 52.9282C40.542 53.3677 40.4284 53.537 39.9585 53.5319C36.0231 53.4991 32.0851 53.4965 28.1496 53.4688C27.3438 53.4637 26.6416 53.105 26.2197 52.4457C25.318 51.0261 24.4996 49.5535 23.5725 47.9748Z" fill="#FEFEFE"/>
<path d="M24.0829 44.1698C23.4211 44.1698 22.7568 44.2027 22.0975 44.1623C21.1376 44.1016 20.5996 43.258 21.0593 42.4269C22.3072 40.1712 23.6257 37.9534 24.9013 35.7154C25.0933 35.3795 25.2777 35.3921 25.5783 35.5689C26.8767 36.3368 28.1826 37.0971 29.5011 37.8271C29.8927 38.0444 29.8472 38.2363 29.6578 38.5597C28.6575 40.2697 27.6673 41.9849 26.6923 43.7101C26.5003 44.0486 26.2856 44.2103 25.8764 44.185C25.2802 44.1471 24.6791 44.1749 24.0804 44.1749C24.0829 44.1749 24.0829 44.1724 24.0829 44.1698Z" fill="#FEFEFE"/>
<path d="M25.8055 31.3347C27.8035 30.6324 29.6424 30.0035 31.4637 29.3341C31.84 29.1952 31.9133 29.3619 31.9613 29.6296C32.3124 31.5367 32.6559 33.4464 33.0298 35.4949C30.5947 34.0905 28.2885 32.7618 25.8055 31.3347Z" fill="#FDFDFD"/>
<path d="M73.43 47.921C70.659 43.0964 67.9714 38.4006 65.261 33.7149C65.0286 33.3133 65.0968 33.1617 65.4808 32.947C66.7741 32.2296 68.0522 31.4819 69.3228 30.7267C69.6562 30.5271 69.8381 30.5347 70.0477 30.9035C71.9751 34.2959 73.9251 37.6756 75.8524 41.068C76.3197 41.889 76.3425 42.7857 75.9004 43.6066C75.1426 45.0212 74.3116 46.3928 73.43 47.921Z" fill="#FEFEFE"/>
<path d="M65.9713 52.8867C64.7411 52.8867 63.511 52.8665 62.2808 52.8968C61.8211 52.9069 61.6923 52.763 61.6999 52.3108C61.7251 50.8609 61.7251 49.4085 61.6999 47.9586C61.6923 47.5241 61.7908 47.3548 62.2657 47.3624C64.2511 47.3877 66.239 47.3801 68.227 47.3675C68.5705 47.365 68.8004 47.4332 68.9848 47.7716C69.5708 48.8477 70.225 49.8884 70.8111 50.967C71.3744 52.0077 70.8565 52.8589 69.6592 52.8792C68.4316 52.9044 67.2014 52.8867 65.9713 52.8867Z" fill="#FEFEFE"/>
<path d="M57.9084 45.9623C57.9084 48.8142 57.9084 51.4462 57.9084 54.2955C56.216 52.8557 54.6373 51.5144 53.0206 50.1378C54.6272 48.7636 56.1933 47.4249 57.9084 45.9623Z" fill="#FDFDFD"/>
</svg>
