<svg width="16" height="16" viewBox="0 0 16 16" fill="none" xmlns="http://www.w3.org/2000/svg">
<g clip-path="url(#clip0_1_18)">
<path d="M15.975 12.0937L15.2484 15.2437C15.1464 15.689 14.755 16.0006 14.2966 16.0006C6.4125 15.9999 0 9.58744 0 1.70306C0 1.24494 0.311531 0.853065 0.756875 0.751502L3.90687 0.0249398C4.36562 -0.0813727 4.83437 0.156752 5.025 0.59119L6.47875 3.98181C6.64869 4.38119 6.53406 4.8465 6.19812 5.12088L4.51562 6.47182C5.5775 8.63494 7.33625 10.3937 9.5 11.4562L10.8775 9.77494C11.149 9.43806 11.6178 9.3215 12.0172 9.49447L15.4078 10.9479C15.8156 11.1624 16.0813 11.6374 15.975 12.0937Z" fill="#019D6D"/>
</g>
<defs>
<clipPath id="clip0_1_18">
<rect width="16" height="16" fill="white"/>
</clipPath>
</defs>
</svg>
