<svg width="127" height="100" viewBox="0 0 127 100" fill="none" xmlns="http://www.w3.org/2000/svg">
<path d="M0.218349 42.8459C0.959414 34.0755 8.52555 25.8444 17.4878 24.3457C19.5125 24.0083 20.5116 23.3532 21.3486 21.3649C24.6603 13.4812 33.5795 9.9512 41.5724 13.1272C42.34 13.4316 42.7006 13.286 43.1935 12.6739C56.3209 -3.72211 80.8455 -4.30107 94.6876 11.4697C95.3526 12.2273 95.915 12.3431 96.8876 12.181C104.947 10.8246 111.997 16.1808 112.913 24.3159C112.999 25.0868 113.333 25.4275 113.998 25.7418C121.267 29.1395 125.571 34.7835 126.775 42.7466C126.801 42.912 126.808 43.0708 127 43.1304C127 44.1229 127 45.1154 127 46.1079C126.798 46.6041 126.798 47.1004 127 47.5966C127 47.8448 127 48.0929 127 48.341C126.507 49.2111 126.53 50.2168 126.282 51.1531C123.923 60.1087 115.523 68.0288 103.342 67.3473C102.145 67.2812 101.437 66.5533 101.433 65.4914C101.43 64.3798 102.161 63.6652 103.458 63.6519C105.569 63.6288 107.666 63.5957 109.727 63.0531C117.373 61.0317 122.914 54.3125 123.258 46.6141C123.622 38.4723 118.918 31.3991 111.305 28.6532C109.469 27.9915 109.314 27.7632 109.31 25.765C109.297 18.9267 102.886 14.1528 96.3417 16.108C94.3237 16.7101 94.1616 16.6506 92.868 15.0692C86.5127 7.30454 78.2948 3.39741 68.2805 3.7911C58.779 4.16163 51.1037 8.33343 45.3605 15.9459C43.6931 18.1558 43.5442 18.2319 41.1357 16.9979C34.0327 13.3621 25.3815 17.567 23.8398 25.4044C23.4858 27.2107 23.145 27.5019 21.299 27.5746C11.9 27.9485 4.32398 35.1937 3.75164 44.3578C3.16938 53.6707 9.54783 61.743 18.8178 63.3906C20.3661 63.6652 21.9441 63.6321 23.5156 63.6519C24.8224 63.6652 25.5568 64.3632 25.5634 65.4715C25.5734 66.5765 24.829 67.2745 23.552 67.3573C12.2673 68.0917 2.53418 60.5983 0.344066 49.4824C0.271283 49.1185 0.251433 48.7446 0.208425 48.3774C-0.0132333 47.9771 0.291133 47.4908 0 47.1037C0 46.1112 0 45.1187 0 44.1262C0.297749 43.7358 -0.00992503 43.2462 0.218349 42.8459Z" fill="#20B46D"/>
<path d="M126.997 47.5966C126.56 47.1003 126.656 46.6041 126.997 46.1078C126.997 46.6041 126.997 47.1003 126.997 47.5966Z" fill="#1E1E1E"/>
<path d="M0.218386 42.8459C0.294477 43.2958 0.36726 43.7457 0.00665283 44.1229C0.00665283 43.7094 0.00665283 43.2958 0.00665283 42.8823C0.069511 42.8492 0.142294 42.8359 0.218386 42.8459Z" fill="#616161"/>
<path d="M0.00323486 47.1C0.340684 47.4805 0.287751 47.9271 0.211659 48.3737L0.102485 48.387L0.00323486 48.3407C0.00323486 47.9271 0.00323486 47.5136 0.00323486 47.1Z" fill="#6F6F6F"/>
<path d="M67.8473 28.6668C74.5963 28.7065 80.0749 34.1983 80.055 40.9043C80.0352 47.6764 74.4673 53.1649 67.6852 53.0988C60.9296 53.0326 55.5304 47.5573 55.5635 40.805C55.5966 34.0825 61.1149 28.6271 67.8473 28.6668Z" fill="#20B46D"/>
<path d="M45.7145 92.4474C45.7145 92.0074 45.7145 91.5707 45.7145 91.1307C45.7145 81.5928 45.7145 72.0516 45.7145 62.5137C45.7145 62.1431 45.6946 61.766 45.7409 61.4021C45.8865 60.3037 46.6176 59.6553 47.6432 59.6817C48.6853 59.7082 49.3371 60.3666 49.4165 61.5113C49.4495 61.9645 49.4297 62.4177 49.4297 62.8743C49.4297 72.7364 49.4297 82.5985 49.4297 92.6194C50.4718 91.9611 51.1269 91.0678 51.9109 90.3301C52.9564 89.3475 54.0316 89.2185 54.8454 90.0158C55.6593 90.8164 55.5666 91.9247 54.5576 92.9436C52.7579 94.7632 50.9515 96.5795 49.1253 98.3759C48.027 99.4577 47.1304 99.4478 46.0254 98.3594C44.1728 96.5332 42.33 94.6971 40.5071 92.8411C39.5543 91.8717 39.5146 90.8032 40.3351 90.0026C41.1026 89.2582 42.1778 89.2979 43.0843 90.1746C43.8849 90.9454 44.6293 91.7725 45.3968 92.5764C45.5093 92.5334 45.6119 92.4904 45.7145 92.4474Z" fill="#20B46D"/>
<path d="M77.5637 92.4773C77.5637 91.1275 77.5637 89.7744 77.5637 88.4246C77.5637 79.7932 77.5637 71.165 77.567 62.5336C77.567 62.0804 77.5472 61.6205 77.6166 61.1739C77.7589 60.2939 78.3147 59.7877 79.198 59.7017C80.131 59.6091 80.7926 60.0028 81.1334 60.896C81.3319 61.4121 81.2823 61.9547 81.2823 62.4906C81.2823 72.0285 81.2823 81.5697 81.2823 91.1076C81.2823 91.5509 81.2823 91.9943 81.2823 92.775C82.2549 91.8057 83.0125 91.0348 83.7933 90.2805C84.7725 89.3344 85.8345 89.2318 86.6351 89.9828C87.4986 90.7933 87.439 91.8785 86.4201 92.9107C84.6237 94.7336 82.814 96.5465 80.9878 98.3396C79.8365 99.4711 78.9598 99.4512 77.7986 98.2999C75.979 96.4969 74.166 94.6905 72.3663 92.8677C71.4268 91.9182 71.3507 90.8099 72.1215 90.0291C72.9056 89.2384 74.0039 89.2947 74.96 90.2243C75.754 90.9984 76.5083 91.809 77.2825 92.6063C77.3784 92.5666 77.4711 92.5203 77.5637 92.4773Z" fill="#20B46D"/>
<path d="M44.8872 28.67C46.3826 28.6567 48.4536 29.2588 50.3691 30.4101C51.6495 31.181 52.0465 32.2628 51.4179 33.2586C50.8091 34.2213 49.777 34.3537 48.4999 33.6291C43.458 30.7674 37.4137 33.1197 35.8787 38.5817C34.9887 41.7478 35.7463 44.5731 38.0522 46.8922C40.2887 49.1419 43.028 49.8631 46.1246 49.1154C47.2825 48.8375 48.2022 48.1659 49.026 47.319C49.9721 46.3463 51.054 46.2438 51.8579 46.9882C52.6883 47.759 52.6089 48.9004 51.6594 49.9326C48.0467 53.8463 41.5194 54.2168 36.8513 50.7696C32.5538 47.6002 30.7772 42.115 32.4281 37.1227C34.122 31.9981 38.7536 28.6567 44.8872 28.67Z" fill="#20B46D"/>
<path d="M61.6374 82.4998C61.6374 75.9592 61.6374 69.4385 61.6374 62.9178C61.6374 62.4646 61.6176 62.008 61.6507 61.5548C61.7466 60.3572 62.4447 59.669 63.5232 59.6789C64.5951 59.6922 65.26 60.3836 65.3494 61.6044C65.3758 61.9749 65.3593 62.3488 65.3593 62.7193C65.3593 68.8695 65.3593 75.023 65.3593 81.1731C65.3593 81.6164 65.3593 82.0598 65.3593 82.5031C65.4784 82.5924 65.6008 82.685 65.7199 82.7744C66.4411 81.9605 67.1292 81.1169 67.8902 80.3427C68.8363 79.38 69.9314 79.294 70.7254 80.0384C71.569 80.8258 71.4995 81.9572 70.5004 82.9695C68.704 84.7924 66.8943 86.6054 65.0715 88.3985C63.9235 89.5266 63.0468 89.5068 61.8855 88.3588C60.066 86.5591 58.253 84.7494 56.4533 82.9298C55.5005 81.9671 55.431 80.8919 56.2151 80.0913C56.9892 79.3039 58.1041 79.3701 59.0569 80.2832C59.8311 81.0243 60.5854 81.7885 61.3496 82.5395C61.3728 82.5593 61.4323 82.5329 61.6374 82.4998Z" fill="#20B46D"/>
<path d="M29.808 82.5029C29.808 79.2905 29.808 76.0782 29.808 72.8691C29.808 69.2365 29.8013 65.6007 29.8113 61.9682C29.8146 60.5092 30.5027 59.6887 31.6672 59.6821C32.8549 59.6722 33.5199 60.4562 33.5232 61.9351C33.5298 68.4194 33.5265 74.9004 33.5265 81.3847C33.5265 81.7817 33.5265 82.1787 33.5265 82.5757C33.6324 82.6452 33.7349 82.7147 33.8408 82.7841C34.6083 81.9471 35.3494 81.0837 36.15 80.283C37.0863 79.3501 38.2078 79.3104 38.9786 80.1143C39.7197 80.8852 39.6767 81.967 38.7934 82.8635C36.9109 84.7757 35.0186 86.678 33.0964 88.5539C32.1469 89.4802 31.2173 89.4835 30.2678 88.5572C28.3159 86.6549 26.3872 84.7294 24.4849 82.7775C23.6379 81.9074 23.6445 80.905 24.3856 80.1242C25.13 79.3402 26.2184 79.3534 27.1348 80.1805C27.5616 80.5676 27.9718 80.9811 28.3622 81.4046C28.746 81.8247 29.0967 82.278 29.4639 82.7147C29.5797 82.6452 29.6922 82.5757 29.808 82.5029Z" fill="#20B46D"/>
<path d="M93.4734 82.9988C93.4734 82.1817 93.4734 81.788 93.4734 81.3943C93.4734 75.1184 93.4734 68.8425 93.4734 62.5633C93.4734 62.1928 93.4602 61.8189 93.4866 61.4484C93.5627 60.3864 94.1384 59.781 95.197 59.6917C96.216 59.6056 97.0332 60.2706 97.1556 61.3359C97.2383 62.0703 97.192 62.8213 97.192 63.5624C97.1953 69.8747 97.192 76.1837 97.192 82.8268C98.1481 81.8773 98.9024 81.1098 99.6765 80.3588C100.699 79.3696 101.814 79.2836 102.604 80.1073C103.405 80.941 103.339 81.9335 102.346 82.9426C100.523 84.7985 98.6873 86.6413 96.828 88.4609C95.7694 89.4931 94.853 89.4897 93.8175 88.4675C91.935 86.6148 90.0658 84.7456 88.2099 82.8632C87.3298 81.9699 87.2736 80.8881 88.0114 80.1139C88.7822 79.3034 89.907 79.3431 90.8466 80.2628C91.6571 81.0667 92.4247 81.9071 93.4734 82.9988Z" fill="#20B46D"/>
<path d="M88.7524 31.7701C89.6423 31.7701 90.3305 31.7403 91.0153 31.7767C92.246 31.8429 93.0367 32.6302 93.0003 33.7054C92.9672 34.7244 92.1864 35.4622 91.0153 35.4787C89.1163 35.5052 87.2107 35.525 85.3117 35.4655C83.5186 35.4092 82.7048 33.8245 83.7237 32.3259C84.9776 30.4831 86.3472 28.7198 87.6342 26.9002C88.0345 26.3312 88.3653 25.7059 88.6697 25.0806C88.9575 24.4851 88.6697 24.0385 88.137 23.7507C87.5647 23.443 87.0982 23.6581 86.7343 24.1312C86.6152 24.29 86.5788 24.5083 86.4928 24.6936C85.9933 25.782 85.0768 26.2518 84.1174 25.9143C83.0985 25.5537 82.6552 24.5513 83.0025 23.3868C83.7998 20.7368 86.5788 19.2712 89.1858 20.1281C91.7861 20.9849 93.1062 23.8036 92.1401 26.4304C91.7497 27.4858 91.141 28.4154 90.4959 29.3252C89.9632 30.0894 89.4141 30.8471 88.7524 31.7701Z" fill="#20B46D"/>
<path d="M67.9628 32.3955C72.6507 32.4915 76.4453 36.4019 76.3295 41.0236C76.2138 45.781 72.3331 49.4797 67.5658 49.3772C62.8382 49.2746 59.1593 45.3608 59.285 40.5671C59.4075 35.9784 63.3113 32.2996 67.9628 32.3955Z" fill="#FEFEFE"/>
</svg>
